<?xml version="1.0" encoding="UTF-8" standalone="no"?>
<!-- Created with Inkscape (http://www.inkscape.org/) -->

<svg
   width="6.0805721mm"
   height="5.3789029mm"
   viewBox="0 0 6.0805721 5.3789029"
   version="1.1"
   id="svg1"
   inkscape:version="1.4 (e7c3feb100, 2024-10-09)"
   sodipodi:docname="seatingPlannerSkiss.svg"
   xml:space="preserve"
   xmlns:inkscape="http://www.inkscape.org/namespaces/inkscape"
   xmlns:sodipodi="http://sodipodi.sourceforge.net/DTD/sodipodi-0.dtd"
   xmlns="http://www.w3.org/2000/svg"
   xmlns:svg="http://www.w3.org/2000/svg"><sodipodi:namedview
     id="namedview1"
     pagecolor="#ffffff"
     bordercolor="#111111"
     borderopacity="1"
     inkscape:showpageshadow="0"
     inkscape:pageopacity="0"
     inkscape:pagecheckerboard="1"
     inkscape:deskcolor="#d1d1d1"
     inkscape:document-units="mm"
     inkscape:zoom="0.94485346"
     inkscape:cx="4453.6007"
     inkscape:cy="319.0971"
     inkscape:window-width="1920"
     inkscape:window-height="1080"
     inkscape:window-x="0"
     inkscape:window-y="0"
     inkscape:window-maximized="0"
     inkscape:current-layer="g12"
     showgrid="false"
     showguides="true"><inkscape:grid
       id="grid11"
       units="mm"
       originx="-1043.8973"
       originy="-50.287136"
       spacingx="0.26458333"
       spacingy="0.26458333"
       empcolor="#0099e5"
       empopacity="0.30196078"
       color="#0099e5"
       opacity="0.14901961"
       empspacing="5"
       enabled="true"
       visible="false" /><inkscape:page
       x="0"
       y="0"
       width="6.0805721"
       height="5.3789029"
       id="page1"
       margin="0"
       bleed="0" /></sodipodi:namedview><defs
     id="defs1"><linearGradient
       id="linearGradient18"
       inkscape:swatch="gradient"><stop
         style="stop-color:#00a2ff;stop-opacity:1;"
         offset="0"
         id="stop19" /><stop
         style="stop-color:#00a2ff;stop-opacity:0;"
         offset="1"
         id="stop20" /></linearGradient></defs><g
     inkscape:label="Layer 1"
     inkscape:groupmode="layer"
     id="layer1"
     transform="translate(-1043.8973,-50.287136)"><g
       id="g12"><g
         style="clip-rule:evenodd;fill-rule:evenodd;stroke-linejoin:round;stroke-miterlimit:2"
         id="g1"
         transform="matrix(0.01187659,0,0,0.01187659,1043.8972,49.936179)"><path
           d="m 481.905,375.554 -23.562,23.561 c -16.063,16.06 -34.692,34.687 -48.759,48.757 -6.128,6.126 -16.097,6.125 -22.22,0.003 -2.968,-2.968 -4.603,-6.916 -4.603,-11.115 0,-4.192 1.635,-8.136 4.604,-11.105 l 9.035,-9.038 c 4.29,-4.291 5.574,-10.742 3.252,-16.347 -2.322,-5.606 -7.791,-9.26 -13.858,-9.26 H 262.411 c -4.566,0 -8.787,-2.662 -10.753,-6.781 L 221.91,321.91 c -0.002,-0.003 -0.003,-0.007 -0.005,-0.011 l -28.688,-60.1 -48.142,-100.85 c -2.49,-5.217 -7.755,-8.539 -13.536,-8.539 H 45.72 c -8.663,0 -15.711,-7.047 -15.711,-15.71 0,-8.662 7.048,-15.709 15.711,-15.709 h 109.568 c 3.432,0 6.694,1.089 9.388,3.105 l 30.034,65.738 c 0.006,0.013 0.009,0.027 0.015,0.039 l 27.709,60.645 45.826,100.306 c 2.44,5.34 7.772,8.766 13.644,8.766 h 103.89 c 6.067,0 11.536,-3.654 13.858,-9.26 2.322,-5.605 1.038,-12.056 -3.252,-16.346 l -9.039,-9.042 c -2.966,-2.965 -4.6,-6.909 -4.6,-11.107 0,-4.196 1.634,-8.141 4.604,-11.111 2.968,-2.969 6.912,-4.604 11.107,-4.604 4.196,0 8.14,1.635 11.111,4.608 22.055,22.05 55.313,55.308 72.319,72.316 0.144,0.144 0.144,0.369 0.003,0.51 m -317.224,12.33 c -2.697,2.006 -6.017,3.126 -9.393,3.126 H 45.72 c -8.663,0 -15.711,-7.048 -15.711,-15.71 0,-8.662 7.048,-15.71 15.711,-15.71 h 85.819 c 5.781,0 11.047,-3.321 13.536,-8.538 l 28.751,-60.231 17.987,37.679 z m 86.804,-259.751 c 2.071,-4.339 6.518,-7.142 11.328,-7.142 h 122.981 c 6.067,0 11.536,-3.655 13.858,-9.26 2.321,-5.606 1.038,-12.057 -3.252,-16.347 l -9.037,-9.04 c -2.968,-2.968 -4.602,-6.915 -4.602,-11.113 0,-4.193 1.635,-8.137 4.6,-11.103 6.127,-6.124 16.095,-6.125 22.222,-0.001 21.961,21.956 55.029,55.026 72.103,72.1 l 0.216,0.217 c 0.142,0.141 0.142,0.372 0.003,0.51 l -0.184,0.184 c -17.064,17.064 -50.162,50.164 -72.137,72.134 -6.127,6.126 -16.096,6.125 -22.222,0.001 -2.967,-2.966 -4.601,-6.911 -4.601,-11.108 0,-4.196 1.634,-8.141 4.604,-11.11 l 9.035,-9.038 c 4.29,-4.29 5.573,-10.741 3.252,-16.347 -2.322,-5.605 -7.791,-9.26 -13.858,-9.26 h -103.89 c -5.872,0 -11.204,3.426 -13.644,8.767 l -26.829,58.728 -16.506,-36.129 z m 179.313,153.384 c -8.634,-8.639 -20.114,-13.397 -32.326,-13.397 -12.211,0 -23.691,4.758 -32.321,13.393 -8.635,8.632 -13.39,20.111 -13.39,32.322 0,5.462 0.951,10.777 2.774,15.755 h -63.993 l -33.62,-73.59 33.62,-73.59 h 63.994 c -1.824,4.979 -2.775,10.294 -2.775,15.755 0,12.211 4.755,23.691 13.39,32.324 17.822,17.816 46.821,17.817 64.643,-0.001 21.976,-21.971 55.076,-55.072 72.141,-72.137 l 0.187,-0.187 c 11.827,-11.835 11.827,-31.092 -0.003,-42.93 l -0.22,-0.22 C 485.824,97.939 452.755,64.868 430.793,42.911 c -17.82,-17.815 -46.819,-17.815 -64.645,0.003 -8.633,8.636 -13.387,20.113 -13.387,32.317 0,5.463 0.952,10.779 2.776,15.76 h -92.724 c -16.304,0 -31.378,9.505 -38.402,24.217 l -15.743,32.984 -18.021,-39.445 c -0.743,-1.626 -1.771,-3.106 -3.035,-4.371 -8.629,-8.632 -20.108,-13.385 -32.324,-13.385 H 45.72 c -25.205,0 -45.711,20.505 -45.711,45.709 0,25.205 20.506,45.71 45.711,45.71 h 76.358 L 157.206,256 122.078,329.59 H 45.72 c -25.205,0 -45.711,20.506 -45.711,45.71 0,25.204 20.506,45.71 45.711,45.71 h 109.568 c 12.208,0 23.687,-4.757 32.323,-13.394 1.265,-1.265 2.293,-2.746 3.036,-4.373 l 18.019,-39.437 15.918,33.348 c 6.919,14.492 21.767,23.856 37.827,23.856 h 93.125 c -1.824,4.979 -2.775,10.292 -2.775,15.75 0,12.211 4.754,23.69 13.391,32.329 8.91,8.908 20.614,13.361 32.319,13.361 11.705,0 23.413,-4.455 32.326,-13.364 14.068,-14.072 32.697,-32.698 48.757,-48.757 l 23.568,-23.565 c 11.827,-11.835 11.827,-31.092 -0.003,-42.93 -17.01,-17.01 -50.269,-50.271 -72.321,-72.317"
           id="path2017"
           style="fill-rule:nonzero" /></g></g></g></svg>
