<?xml version="1.0" encoding="UTF-8" standalone="no"?>
<!-- Created with Inkscape (http://www.inkscape.org/) -->

<svg
   width="4.9852901mm"
   height="5.1461167mm"
   viewBox="0 0 4.9852899 5.1461167"
   version="1.1"
   id="svg1"
   inkscape:version="1.4 (e7c3feb100, 2024-10-09)"
   sodipodi:docname="seatingPlannerSkiss.svg"
   xml:space="preserve"
   xmlns:inkscape="http://www.inkscape.org/namespaces/inkscape"
   xmlns:sodipodi="http://sodipodi.sourceforge.net/DTD/sodipodi-0.dtd"
   xmlns="http://www.w3.org/2000/svg"
   xmlns:svg="http://www.w3.org/2000/svg"><sodipodi:namedview
     id="namedview1"
     pagecolor="#ffffff"
     bordercolor="#111111"
     borderopacity="1"
     inkscape:showpageshadow="0"
     inkscape:pageopacity="0"
     inkscape:pagecheckerboard="1"
     inkscape:deskcolor="#d1d1d1"
     inkscape:document-units="mm"
     inkscape:zoom="8.4315574"
     inkscape:cx="3962.3759"
     inkscape:cy="437.04856"
     inkscape:window-width="1916"
     inkscape:window-height="1049"
     inkscape:window-x="0"
     inkscape:window-y="27"
     inkscape:window-maximized="1"
     inkscape:current-layer="g12"
     showgrid="false"
     showguides="true"><inkscape:grid
       id="grid11"
       units="mm"
       originx="-1032.7831"
       originy="-106.8973"
       spacingx="0.26458333"
       spacingy="0.26458333"
       empcolor="#0099e5"
       empopacity="0.30196078"
       color="#0099e5"
       opacity="0.14901961"
       empspacing="5"
       enabled="true"
       visible="false" /><inkscape:page
       x="0"
       y="0"
       width="4.9852901"
       height="5.1461167"
       id="page1"
       margin="0"
       bleed="0" /></sodipodi:namedview><defs
     id="defs1"><linearGradient
       id="linearGradient18"
       inkscape:swatch="gradient"><stop
         style="stop-color:#00a2ff;stop-opacity:1;"
         offset="0"
         id="stop19" /><stop
         style="stop-color:#00a2ff;stop-opacity:0;"
         offset="1"
         id="stop20" /></linearGradient></defs><g
     inkscape:label="Layer 1"
     inkscape:groupmode="layer"
     id="layer1"
     transform="translate(-1032.7831,-106.8973)"><g
       id="g12"><path
         d="m 1033.4263,111.56097 h 0.4825 v 0.48245 h -0.4825 c -0.3547,0 -0.6432,-0.28846 -0.6432,-0.64326 v -3.85959 c 0,-0.3548 0.2885,-0.64327 0.6432,-0.64327 h 1.6634 c 0.171,0 0.3348,0.0673 0.4554,0.18796 l 0.9097,0.90961 c 0.1205,0.12062 0.1879,0.28445 0.1879,0.45531 v 1.50263 h -0.4825 v -1.44735 h -0.804 c -0.1779,0 -0.3216,-0.14372 -0.3216,-0.32163 v -0.80408 h -1.6083 c -0.088,0 -0.1608,0.0723 -0.1608,0.16082 v 3.85959 c 0,0.0884 0.072,0.16081 0.1608,0.16081 z m 1.1258,-1.12571 h 0.3217 c 0.3104,0 0.5628,0.25228 0.5628,0.56286 0,0.31058 -0.2524,0.56285 -0.5628,0.56285 h -0.1608 v 0.32164 c 0,0.0884 -0.073,0.16081 -0.1609,0.16081 -0.088,0 -0.1608,-0.0724 -0.1608,-0.16081 v -0.48245 -0.80409 c 0,-0.0884 0.072,-0.16081 0.1608,-0.16081 z m 0.3217,0.80408 c 0.1336,0 0.2411,-0.10755 0.2411,-0.24122 0,-0.13369 -0.1075,-0.24123 -0.2411,-0.24123 h -0.1608 v 0.48245 z m 0.9647,-0.80408 h 0.3217 c 0.2664,0 0.4825,0.2161 0.4825,0.48245 v 0.64326 c 0,0.26635 -0.2161,0.48245 -0.4825,0.48245 h -0.3217 c -0.089,0 -0.1607,-0.0724 -0.1607,-0.16081 v -1.28654 c 0,-0.0884 0.072,-0.16081 0.1607,-0.16081 z m 0.3217,1.28653 c 0.088,0 0.1608,-0.0724 0.1608,-0.16082 v -0.64326 c 0,-0.0884 -0.072,-0.16082 -0.1608,-0.16082 h -0.1608 v 0.9649 z m 0.8042,-1.12572 c 0,-0.0884 0.072,-0.16081 0.1607,-0.16081 h 0.4825 c 0.088,0 0.1608,0.0724 0.1608,0.16081 0,0.0884 -0.072,0.16082 -0.1608,0.16082 h -0.3217 v 0.32163 h 0.3217 c 0.088,0 0.1608,0.0724 0.1608,0.16082 0,0.0884 -0.072,0.16082 -0.1608,0.16082 h -0.3217 v 0.48245 c 0,0.0884 -0.072,0.16081 -0.1608,0.16081 -0.089,0 -0.1607,-0.0724 -0.1607,-0.16081 v -0.64327 z"
         id="path1-6"
         style="stroke-width:0.010051" /></g></g></svg>
