<?xml version="1.0" encoding="UTF-8" standalone="no"?>
<!-- Created with Inkscape (http://www.inkscape.org/) -->

<svg
   width="5.1461978mm"
   height="5.1461573mm"
   viewBox="0 0 5.1461977 5.1461573"
   version="1.1"
   id="svg1"
   inkscape:version="1.4 (e7c3feb100, 2024-10-09)"
   sodipodi:docname="seatingPlannerSkiss.svg"
   xml:space="preserve"
   xmlns:inkscape="http://www.inkscape.org/namespaces/inkscape"
   xmlns:sodipodi="http://sodipodi.sourceforge.net/DTD/sodipodi-0.dtd"
   xmlns="http://www.w3.org/2000/svg"
   xmlns:svg="http://www.w3.org/2000/svg"><sodipodi:namedview
     id="namedview1"
     pagecolor="#ffffff"
     bordercolor="#111111"
     borderopacity="1"
     inkscape:showpageshadow="0"
     inkscape:pageopacity="0"
     inkscape:pagecheckerboard="1"
     inkscape:deskcolor="#d1d1d1"
     inkscape:document-units="mm"
     inkscape:zoom="8.4315574"
     inkscape:cx="3962.3759"
     inkscape:cy="437.04856"
     inkscape:window-width="1916"
     inkscape:window-height="1049"
     inkscape:window-x="0"
     inkscape:window-y="27"
     inkscape:window-maximized="1"
     inkscape:current-layer="g12"
     showgrid="false"
     showguides="true"><inkscape:grid
       id="grid11"
       units="mm"
       originx="-1033.4269"
       originy="-120.32341"
       spacingx="0.26458333"
       spacingy="0.26458333"
       empcolor="#0099e5"
       empopacity="0.30196078"
       color="#0099e5"
       opacity="0.14901961"
       empspacing="5"
       enabled="true"
       visible="false" /><inkscape:page
       x="-2.3065239e-14"
       y="0"
       width="5.1461973"
       height="5.1461573"
       id="page1"
       margin="0"
       bleed="0" /></sodipodi:namedview><defs
     id="defs1"><linearGradient
       id="linearGradient18"
       inkscape:swatch="gradient"><stop
         style="stop-color:#00a2ff;stop-opacity:1;"
         offset="0"
         id="stop19" /><stop
         style="stop-color:#00a2ff;stop-opacity:0;"
         offset="1"
         id="stop20" /></linearGradient></defs><g
     inkscape:label="Layer 1"
     inkscape:groupmode="layer"
     id="layer1"
     transform="translate(-1033.4269,-120.32341)"><g
       id="g12"><path
         d="m 1033.4269,120.96668 c 0,-0.35481 0.2884,-0.64327 0.6433,-0.64327 h 1.6081 v 1.28653 c 0,0.1779 0.1437,0.32163 0.3217,0.32163 h 1.2865 v 1.44734 h -2.0907 c -0.3547,0 -0.6431,0.28846 -0.6431,0.64327 v 1.44734 h -0.4825 c -0.3549,0 -0.6433,-0.28847 -0.6433,-0.64326 z m 3.8596,0.64326 H 1036 v -1.28653 z m -1.8494,2.25142 h 0.1608 c 0.2221,0 0.4021,0.17991 0.4021,0.40204 v 0.0804 c 0,0.0884 -0.073,0.16082 -0.1608,0.16082 -0.088,0 -0.1609,-0.0723 -0.1609,-0.16082 v -0.0804 c 0,-0.0442 -0.036,-0.0804 -0.081,-0.0804 h -0.1609 c -0.045,0 -0.081,0.0362 -0.081,0.0804 v 0.80408 c 0,0.0442 0.036,0.0804 0.081,0.0804 h 0.1609 c 0.045,0 0.081,-0.0362 0.081,-0.0804 v -0.0804 c 0,-0.0884 0.073,-0.16081 0.1609,-0.16081 0.088,0 0.1608,0.0723 0.1608,0.16081 v 0.0804 c 0,0.22213 -0.18,0.40204 -0.4021,0.40204 h -0.1608 c -0.2221,0 -0.402,-0.17991 -0.402,-0.40204 v -0.80408 c 0,-0.22213 0.1799,-0.40204 0.402,-0.40204 z m 1.3378,0 h 0.3507 c 0.089,0 0.1609,0.0723 0.1609,0.16082 0,0.0884 -0.073,0.16081 -0.1609,0.16081 h -0.3507 c -0.073,0 -0.1317,0.0593 -0.1317,0.13167 0,0.0523 0.03,0.0995 0.079,0.12061 l 0.376,0.16685 c 0.1638,0.0723 0.2693,0.23519 0.2693,0.4141 0,0.25027 -0.203,0.4533 -0.4532,0.4533 h -0.4313 c -0.088,0 -0.1608,-0.0723 -0.1608,-0.16081 0,-0.0884 0.073,-0.16082 0.1608,-0.16082 h 0.4313 c 0.073,0 0.1316,-0.0593 0.1316,-0.13167 0,-0.0523 -0.03,-0.0995 -0.079,-0.12061 l -0.376,-0.16685 c -0.1638,-0.0723 -0.2693,-0.23519 -0.2693,-0.4141 0,-0.25027 0.2031,-0.4533 0.4533,-0.4533 z m 0.9941,0 c 0.088,0 0.1608,0.0723 0.1608,0.16082 v 0.31761 c 0,0.23117 0.055,0.45832 0.1607,0.66336 0.1056,-0.20403 0.1609,-0.43119 0.1609,-0.66336 v -0.31761 c 0,-0.0884 0.073,-0.16082 0.1608,-0.16082 0.089,0 0.1609,0.0723 0.1609,0.16082 v 0.31761 c 0,0.34877 -0.1035,0.6905 -0.2975,0.98098 l -0.052,0.0774 c -0.03,0.0452 -0.081,0.0714 -0.1337,0.0714 -0.053,0 -0.1035,-0.0271 -0.1336,-0.0714 l -0.052,-0.0774 c -0.194,-0.29048 -0.2976,-0.63221 -0.2976,-0.98098 v -0.31761 c 0,-0.0884 0.073,-0.16082 0.1609,-0.16082 z"
         id="path1-60"
         style="stroke-width:0.010051" /></g></g></svg>
