<?xml version="1.0" encoding="UTF-8" standalone="no"?>
<!-- Created with Inkscape (http://www.inkscape.org/) -->

<svg
   width="3.859648mm"
   height="5.1461248mm"
   viewBox="0 0 3.8596479 5.1461248"
   version="1.1"
   id="svg1"
   inkscape:version="1.4 (e7c3feb100, 2024-10-09)"
   sodipodi:docname="seatingPlannerSkiss.svg"
   xml:space="preserve"
   xmlns:inkscape="http://www.inkscape.org/namespaces/inkscape"
   xmlns:sodipodi="http://sodipodi.sourceforge.net/DTD/sodipodi-0.dtd"
   xmlns="http://www.w3.org/2000/svg"
   xmlns:svg="http://www.w3.org/2000/svg"><sodipodi:namedview
     id="namedview1"
     pagecolor="#ffffff"
     bordercolor="#111111"
     borderopacity="1"
     inkscape:showpageshadow="0"
     inkscape:pageopacity="0"
     inkscape:pagecheckerboard="1"
     inkscape:deskcolor="#d1d1d1"
     inkscape:document-units="mm"
     inkscape:zoom="8.4315574"
     inkscape:cx="3962.3759"
     inkscape:cy="437.04856"
     inkscape:window-width="1916"
     inkscape:window-height="1049"
     inkscape:window-x="0"
     inkscape:window-y="27"
     inkscape:window-maximized="1"
     inkscape:current-layer="g12"
     showgrid="false"
     showguides="true"><inkscape:grid
       id="grid11"
       units="mm"
       originx="-1032.7831"
       originy="-113.35063"
       spacingx="0.26458333"
       spacingy="0.26458333"
       empcolor="#0099e5"
       empopacity="0.30196078"
       color="#0099e5"
       opacity="0.14901961"
       empspacing="5"
       enabled="true"
       visible="false" /><inkscape:page
       x="0"
       y="0"
       width="3.859648"
       height="5.1461248"
       id="page1"
       margin="0"
       bleed="0" /></sodipodi:namedview><defs
     id="defs1"><linearGradient
       id="linearGradient18"
       inkscape:swatch="gradient"><stop
         style="stop-color:#00a2ff;stop-opacity:1;"
         offset="0"
         id="stop19" /><stop
         style="stop-color:#00a2ff;stop-opacity:0;"
         offset="1"
         id="stop20" /></linearGradient></defs><g
     inkscape:label="Layer 1"
     inkscape:groupmode="layer"
     id="layer1"
     transform="translate(-1032.7831,-113.35063)"><g
       id="g12"><path
         d="m 1033.4264,118.01431 c -0.089,0 -0.1608,-0.0724 -0.1608,-0.16082 v -3.8596 c 0,-0.0884 0.072,-0.16081 0.1608,-0.16081 h 1.6081 v 0.80408 c 0,0.1779 0.1438,0.32163 0.3217,0.32163 h 0.8041 v 2.8947 c 0,0.0885 -0.072,0.16082 -0.1609,0.16082 z m 0,-4.66368 c -0.3548,0 -0.6433,0.28846 -0.6433,0.64326 v 3.8596 c 0,0.3548 0.2885,0.64327 0.6433,0.64327 h 2.573 c 0.3548,0 0.6433,-0.28847 0.6433,-0.64327 v -2.94997 c 0,-0.17087 -0.067,-0.33471 -0.188,-0.45532 l -0.9106,-0.90962 c -0.1206,-0.12061 -0.2834,-0.18795 -0.4543,-0.18795 z m 0.9648,2.57306 a 0.32163474,0.32163474 0 1 0 -0.6432,0 0.32163474,0.32163474 0 1 0 0.6432,0 z m 0.6956,0.47139 c -0.03,-0.0432 -0.079,-0.0693 -0.1327,-0.0693 -0.053,0 -0.1025,0.0261 -0.1327,0.0693 l -0.415,0.60005 -0.1197,-0.19197 c -0.029,-0.0472 -0.081,-0.0754 -0.1367,-0.0754 -0.055,0 -0.1065,0.0281 -0.1366,0.0754 l -0.4021,0.64326 c -0.031,0.0493 -0.032,0.11157 0,0.16283 0.028,0.0513 0.082,0.0824 0.1407,0.0824 h 0.4825 0.3216 0.402 0.7237 c 0.06,0 0.1146,-0.0332 0.1427,-0.0864 0.028,-0.0533 0.024,-0.11659 -0.01,-0.16584 l -0.7236,-1.04531 z"
         id="path1-7"
         style="stroke-width:0.010051" /></g></g></svg>
