<?xml version="1.0" encoding="UTF-8" standalone="no"?>
<!-- Created with Inkscape (http://www.inkscape.org/) -->

<svg
   width="5.0062189mm"
   height="5.0061383mm"
   viewBox="0 0 5.0062189 5.0061383"
   version="1.1"
   id="svg1"
   inkscape:version="1.4 (e7c3feb100, 2024-10-09)"
   sodipodi:docname="seatingPlannerSkiss.svg"
   xml:space="preserve"
   xmlns:inkscape="http://www.inkscape.org/namespaces/inkscape"
   xmlns:sodipodi="http://sodipodi.sourceforge.net/DTD/sodipodi-0.dtd"
   xmlns="http://www.w3.org/2000/svg"
   xmlns:svg="http://www.w3.org/2000/svg"><sodipodi:namedview
     id="namedview1"
     pagecolor="#ffffff"
     bordercolor="#111111"
     borderopacity="1"
     inkscape:showpageshadow="0"
     inkscape:pageopacity="0"
     inkscape:pagecheckerboard="1"
     inkscape:deskcolor="#d1d1d1"
     inkscape:document-units="mm"
     inkscape:zoom="0.94485346"
     inkscape:cx="4453.6007"
     inkscape:cy="319.0971"
     inkscape:window-width="1920"
     inkscape:window-height="1080"
     inkscape:window-x="0"
     inkscape:window-y="0"
     inkscape:window-maximized="0"
     inkscape:current-layer="g12"
     showgrid="false"
     showguides="true"><inkscape:grid
       id="grid11"
       units="mm"
       originx="-1045.343"
       originy="-69.154609"
       spacingx="0.26458333"
       spacingy="0.26458333"
       empcolor="#0099e5"
       empopacity="0.30196078"
       color="#0099e5"
       opacity="0.14901961"
       empspacing="5"
       enabled="true"
       visible="false" /><inkscape:page
       x="0"
       y="0"
       width="5.0062189"
       height="5.0061383"
       id="page1"
       margin="0"
       bleed="0" /></sodipodi:namedview><defs
     id="defs1"><linearGradient
       id="linearGradient18"
       inkscape:swatch="gradient"><stop
         style="stop-color:#00a2ff;stop-opacity:1;"
         offset="0"
         id="stop19" /><stop
         style="stop-color:#00a2ff;stop-opacity:0;"
         offset="1"
         id="stop20" /></linearGradient></defs><g
     inkscape:label="Layer 1"
     inkscape:groupmode="layer"
     id="layer1"
     transform="translate(-1045.343,-69.154609)"><g
       id="g12"><path
         d="m 1050.192,70.249047 -0.9373,-0.937331 a 0.53637188,0.53637188 0 0 0 -0.3792,-0.157102 h -2.9961 c -0.2963,0 -0.5364,0.240138 -0.5364,0.536371 v 3.933395 c 0,0.296233 0.2401,0.536371 0.5364,0.536371 h 3.9334 c 0.2962,0 0.5364,-0.240138 0.5364,-0.536371 v -2.996062 a 0.53637188,0.53637188 0 0 0 -0.1572,-0.379271 z m -1.8096,-0.558062 v 0.893954 h -1.4304 v -0.893954 z m 1.3634,3.933395 h -3.7994 a 0.06704649,0.06704649 0 0 1 -0.068,-0.06705 v -3.7993 a 0.06704649,0.06704649 0 0 1 0.068,-0.06705 h 0.4693 v 1.162139 c 0,0.148117 0.1201,0.268186 0.2682,0.268186 h 1.9667 c 0.1482,0 0.2683,-0.120069 0.2683,-0.268186 v -1.118753 l 0.8742,0.87432 a 0.06704649,0.06704649 0 0 1 0.02,0.04742 v 2.901236 a 0.06704649,0.06704649 0 0 1 -0.068,0.06705 z m -1.8998,-2.234883 c -0.5421,0 -0.9834,0.441133 -0.9834,0.983348 0,0.542217 0.4413,0.983348 0.9834,0.983348 0.5423,0 0.9834,-0.441131 0.9834,-0.983348 0,-0.542215 -0.4411,-0.983348 -0.9834,-0.983348 z m 0,1.430325 c -0.2463,0 -0.4469,-0.200514 -0.4469,-0.446977 0,-0.246463 0.2006,-0.446977 0.4469,-0.446977 0.2466,0 0.4472,0.200514 0.4472,0.446977 0,0.246463 -0.2006,0.446977 -0.4472,0.446977 z"
         id="path1-1"
         style="stroke-width:0.0111744" /></g></g></svg>
