<?xml version="1.0" encoding="UTF-8" standalone="no"?>
<!-- Created with Inkscape (http://www.inkscape.org/) -->

<svg
   width="6.7125096mm"
   height="6.9635239mm"
   viewBox="0 0 6.7125095 6.9635239"
   version="1.1"
   id="svg1"
   inkscape:version="1.4 (e7c3feb100, 2024-10-09)"
   sodipodi:docname="seatingPlannerSkiss.svg"
   xml:space="preserve"
   xmlns:inkscape="http://www.inkscape.org/namespaces/inkscape"
   xmlns:sodipodi="http://sodipodi.sourceforge.net/DTD/sodipodi-0.dtd"
   xmlns="http://www.w3.org/2000/svg"
   xmlns:svg="http://www.w3.org/2000/svg"><sodipodi:namedview
     id="namedview1"
     pagecolor="#ffffff"
     bordercolor="#111111"
     borderopacity="1"
     inkscape:showpageshadow="0"
     inkscape:pageopacity="0"
     inkscape:pagecheckerboard="1"
     inkscape:deskcolor="#d1d1d1"
     inkscape:document-units="mm"
     inkscape:zoom="0.75307295"
     inkscape:cx="5212.6424"
     inkscape:cy="419.61406"
     inkscape:window-width="2556"
     inkscape:window-height="1409"
     inkscape:window-x="0"
     inkscape:window-y="27"
     inkscape:window-maximized="1"
     inkscape:current-layer="g12"
     showgrid="false"
     showguides="true"><inkscape:grid
       id="grid11"
       units="mm"
       originx="-1720.5663"
       originy="-0.75156306"
       spacingx="0.26458333"
       spacingy="0.26458333"
       empcolor="#0099e5"
       empopacity="0.30196078"
       color="#0099e5"
       opacity="0.14901961"
       empspacing="5"
       enabled="true"
       visible="false" /><inkscape:page
       x="1.2465122e-06"
       y="1.2303566e-08"
       width="6.7125101"
       height="6.9635239"
       id="page1"
       margin="0"
       bleed="0" /></sodipodi:namedview><defs
     id="defs1"><linearGradient
       id="linearGradient18"
       inkscape:swatch="gradient"><stop
         style="stop-color:#00a2ff;stop-opacity:1;"
         offset="0"
         id="stop19" /><stop
         style="stop-color:#00a2ff;stop-opacity:0;"
         offset="1"
         id="stop20" /></linearGradient></defs><g
     inkscape:label="Layer 1"
     inkscape:groupmode="layer"
     id="layer1"
     transform="translate(-1720.5664,-0.75156306)"><g
       id="g12"><path
         style="fill-rule:evenodd;stroke-linecap:round;stroke-dashoffset:2.6136;paint-order:stroke markers fill"
         d="m 1306.4297,-16.363281 c -10e-5,1.1e-5 -0.014,0.0019 -0.014,0.002 -3e-4,1e-4 -0.01,0.0046 -0.012,0.0059 -0.01,0.0025 -0.01,0.004 -0.01,0.0059 -0.01,0.0037 -0.011,0.007 -0.018,0.01172 -0.013,0.0095 -0.029,0.0218 -0.049,0.03711 -0.039,0.03062 -0.088,0.07223 -0.1386,0.113281 -0.1007,0.0821 -0.2061,0.168734 -0.2051,0.167969 9e-4,-7.66e-4 -0.1049,0.08528 -0.2051,0.167968 -0.05,0.04135 -0.101,0.08305 -0.1387,0.115235 -0.019,0.01609 -0.035,0.03022 -0.047,0.04101 -0.01,0.0054 -0.01,0.0088 -0.014,0.01367 0,0.0024 -0.01,0.0053 -0.01,0.0098 0,0.0023 -0.01,0.0095 -0.01,0.0098 -10e-5,1.55e-4 -0.01,0.01355 -0.01,0.01367 0,6e-5 0,0.01167 0,0.01172 0,5e-5 0,0.01754 0,0.01758 0,4.1e-5 0.01,0.01753 0.01,0.01758 0,4.6e-5 0.01,0.01167 0.01,0.01172 0,1.02e-4 0.01,0.0096 0.01,0.0098 3e-4,2.42e-4 0.01,0.0062 0.01,0.0078 0,0.0032 0.01,0.0043 0.01,0.0059 0.01,0.0031 0.012,0.0065 0.019,0.0098 0.015,0.0064 0.034,0.01424 0.057,0.02344 0.046,0.0184 0.1073,0.04137 0.168,0.06445 0.1214,0.04616 0.2492,0.09417 0.248,0.09375 0,-4.25e-4 0.1264,0.0483 0.2481,0.09375 0.061,0.02272 0.1213,0.04404 0.168,0.06055 0.023,0.0083 0.043,0.01667 0.059,0.02148 0.01,0.0024 0.015,0.0042 0.021,0.0059 0,8.13e-4 0.01,0.0012 0.012,0.002 0,3.7e-4 0.011,1.3e-5 0.012,0 2e-4,-7e-6 0.014,-0.0019 0.014,-0.002 10e-5,-1.5e-5 0.012,-0.0039 0.012,-0.0039 0,-2e-5 0.016,-0.0097 0.016,-0.0098 0,-2.6e-5 0.012,-0.01363 0.012,-0.01367 0,-4.1e-5 0.01,-0.0097 0.01,-0.0098 1e-4,-1.12e-4 0,-0.0135 0,-0.01367 1e-4,-3.42e-4 0,-0.0089 0,-0.01172 4e-4,-0.0057 1e-4,-0.0083 0,-0.01172 -3e-4,-0.0068 0,-0.01354 0,-0.02149 0,-0.01589 0,-0.03799 -0.01,-0.0625 -0.01,-0.04902 -0.017,-0.111651 -0.027,-0.175781 -0.021,-0.12826 -0.043,-0.262909 -0.043,-0.261719 2e-4,0.0012 -0.022,-0.133582 -0.043,-0.261718 -0.011,-0.06407 -0.022,-0.129042 -0.031,-0.177735 0,-0.02435 -0.01,-0.04494 -0.012,-0.06055 0,-0.0078 0,-0.01301 -0.01,-0.01953 -9e-4,-0.0033 0,-0.0065 0,-0.01172 0,-0.0026 -0.01,-0.01142 -0.01,-0.01172 -10e-5,-1.49e-4 -0.01,-0.0097 -0.01,-0.0098 0,-4.5e-5 -0.01,-0.0097 -0.01,-0.0098 -10e-5,-3e-5 -0.016,-0.0078 -0.016,-0.0078 0,-1.4e-5 -0.017,-0.0039 -0.017,-0.0039 -1e-4,-5e-6 -0.014,-6e-6 -0.014,0 z m -0.037,0.183594 c 0.01,0.04436 0.018,0.09528 0.027,0.15039 0.021,0.127358 0.041,0.250147 0.043,0.261719 0,0.01157 0.022,0.134237 0.043,0.261719 0.01,0.05583 0.017,0.10746 0.023,0.152343 -0.043,-0.01525 -0.092,-0.03501 -0.1445,-0.05469 -0.121,-0.04517 -0.2371,-0.08962 -0.2481,-0.09375 -0.011,-0.0041 -0.1273,-0.04592 -0.248,-0.0918 -0.053,-0.01996 -0.1006,-0.04001 -0.1426,-0.05664 0.034,-0.02918 0.074,-0.06205 0.1172,-0.09766 0.1,-0.08219 0.196,-0.160531 0.2051,-0.167969 0.01,-0.0074 0.1049,-0.08636 0.205,-0.167968 0.043,-0.03506 0.084,-0.06778 0.1192,-0.0957 z"
         id="path13-6-1-0-7-7-2-7"
         transform="matrix(0.58483764,2.2364171,-1.5738369,0.83105227,937.46972,-2903.9514)" /><path
         style="fill-rule:evenodd;stroke-linecap:round;stroke-dashoffset:2.6136;paint-order:stroke markers fill"
         d="m 1306.4297,-16.363281 c -10e-5,1.1e-5 -0.014,0.0019 -0.014,0.002 -3e-4,1e-4 -0.01,0.0046 -0.012,0.0059 -0.01,0.0025 -0.01,0.004 -0.01,0.0059 -0.01,0.0037 -0.011,0.007 -0.018,0.01172 -0.013,0.0095 -0.029,0.0218 -0.049,0.03711 -0.039,0.03062 -0.088,0.07223 -0.1386,0.113281 -0.1007,0.0821 -0.2061,0.168734 -0.2051,0.167969 9e-4,-7.66e-4 -0.1049,0.08528 -0.2051,0.167968 -0.05,0.04135 -0.101,0.08305 -0.1387,0.115235 -0.019,0.01609 -0.035,0.03022 -0.047,0.04101 -0.01,0.0054 -0.01,0.0088 -0.014,0.01367 0,0.0024 -0.01,0.0053 -0.01,0.0098 0,0.0023 -0.01,0.0095 -0.01,0.0098 -10e-5,1.55e-4 -0.01,0.01355 -0.01,0.01367 0,6e-5 0,0.01167 0,0.01172 0,5e-5 0,0.01754 0,0.01758 0,4.1e-5 0.01,0.01753 0.01,0.01758 0,4.6e-5 0.01,0.01167 0.01,0.01172 0,1.02e-4 0.01,0.0096 0.01,0.0098 3e-4,2.42e-4 0.01,0.0062 0.01,0.0078 0,0.0032 0.01,0.0043 0.01,0.0059 0.01,0.0031 0.012,0.0065 0.019,0.0098 0.015,0.0064 0.034,0.01424 0.057,0.02344 0.046,0.0184 0.1073,0.04137 0.168,0.06445 0.1214,0.04616 0.2492,0.09417 0.248,0.09375 0,-4.25e-4 0.1264,0.0483 0.2481,0.09375 0.061,0.02272 0.1213,0.04404 0.168,0.06055 0.023,0.0083 0.043,0.01667 0.059,0.02148 0.01,0.0024 0.015,0.0042 0.021,0.0059 0,8.13e-4 0.01,0.0012 0.012,0.002 0,3.7e-4 0.011,1.3e-5 0.012,0 2e-4,-7e-6 0.014,-0.0019 0.014,-0.002 10e-5,-1.5e-5 0.012,-0.0039 0.012,-0.0039 0,-2e-5 0.016,-0.0097 0.016,-0.0098 0,-2.6e-5 0.012,-0.01363 0.012,-0.01367 0,-4.1e-5 0.01,-0.0097 0.01,-0.0098 1e-4,-1.12e-4 0,-0.0135 0,-0.01367 1e-4,-3.42e-4 0,-0.0089 0,-0.01172 4e-4,-0.0057 1e-4,-0.0083 0,-0.01172 -3e-4,-0.0068 0,-0.01354 0,-0.02149 0,-0.01589 0,-0.03799 -0.01,-0.0625 -0.01,-0.04902 -0.017,-0.111651 -0.027,-0.175781 -0.021,-0.12826 -0.043,-0.262909 -0.043,-0.261719 2e-4,0.0012 -0.022,-0.133582 -0.043,-0.261718 -0.011,-0.06407 -0.022,-0.129042 -0.031,-0.177735 0,-0.02435 -0.01,-0.04494 -0.012,-0.06055 0,-0.0078 0,-0.01301 -0.01,-0.01953 -9e-4,-0.0033 0,-0.0065 0,-0.01172 0,-0.0026 -0.01,-0.01142 -0.01,-0.01172 -10e-5,-1.49e-4 -0.01,-0.0097 -0.01,-0.0098 0,-4.5e-5 -0.01,-0.0097 -0.01,-0.0098 -10e-5,-3e-5 -0.016,-0.0078 -0.016,-0.0078 0,-1.4e-5 -0.017,-0.0039 -0.017,-0.0039 -1e-4,-5e-6 -0.014,-6e-6 -0.014,0 z m -0.037,0.183594 c 0.01,0.04436 0.018,0.09528 0.027,0.15039 0.021,0.127358 0.041,0.250147 0.043,0.261719 0,0.01157 0.022,0.134237 0.043,0.261719 0.01,0.05583 0.017,0.10746 0.023,0.152343 -0.043,-0.01525 -0.092,-0.03501 -0.1445,-0.05469 -0.121,-0.04517 -0.2371,-0.08962 -0.2481,-0.09375 -0.011,-0.0041 -0.1273,-0.04592 -0.248,-0.0918 -0.053,-0.01996 -0.1006,-0.04001 -0.1426,-0.05664 0.034,-0.02918 0.074,-0.06205 0.1172,-0.09766 0.1,-0.08219 0.196,-0.160531 0.2051,-0.167969 0.01,-0.0074 0.1049,-0.08636 0.205,-0.167968 0.043,-0.03506 0.084,-0.06778 0.1192,-0.0957 z"
         id="path19-0-48-7"
         transform="matrix(-0.58483764,2.2364171,1.5738369,0.83105227,2510.3755,-2903.9514)" /><path
         style="fill-rule:evenodd;stroke-linecap:round;stroke-dashoffset:2.6136;paint-order:stroke markers fill"
         d="m 1306.4297,-16.363281 c -10e-5,1.1e-5 -0.014,0.0019 -0.014,0.002 -3e-4,1e-4 -0.01,0.0046 -0.012,0.0059 -0.01,0.0025 -0.01,0.004 -0.01,0.0059 -0.01,0.0037 -0.011,0.007 -0.018,0.01172 -0.013,0.0095 -0.029,0.0218 -0.049,0.03711 -0.039,0.03062 -0.088,0.07223 -0.1386,0.113281 -0.1007,0.0821 -0.2061,0.168734 -0.2051,0.167969 9e-4,-7.66e-4 -0.1049,0.08528 -0.2051,0.167968 -0.05,0.04135 -0.101,0.08305 -0.1387,0.115235 -0.019,0.01609 -0.035,0.03022 -0.047,0.04101 -0.01,0.0054 -0.01,0.0088 -0.014,0.01367 0,0.0024 -0.01,0.0053 -0.01,0.0098 0,0.0023 -0.01,0.0095 -0.01,0.0098 -10e-5,1.55e-4 -0.01,0.01355 -0.01,0.01367 0,6e-5 0,0.01167 0,0.01172 0,5e-5 0,0.01754 0,0.01758 0,4.1e-5 0.01,0.01753 0.01,0.01758 0,4.6e-5 0.01,0.01167 0.01,0.01172 0,1.02e-4 0.01,0.0096 0.01,0.0098 3e-4,2.42e-4 0.01,0.0062 0.01,0.0078 0,0.0032 0.01,0.0043 0.01,0.0059 0.01,0.0031 0.012,0.0065 0.019,0.0098 0.015,0.0064 0.034,0.01424 0.057,0.02344 0.046,0.0184 0.1073,0.04137 0.168,0.06445 0.1214,0.04616 0.2492,0.09417 0.248,0.09375 0,-4.25e-4 0.1264,0.0483 0.2481,0.09375 0.061,0.02272 0.1213,0.04404 0.168,0.06055 0.023,0.0083 0.043,0.01667 0.059,0.02148 0.01,0.0024 0.015,0.0042 0.021,0.0059 0,8.13e-4 0.01,0.0012 0.012,0.002 0,3.7e-4 0.011,1.3e-5 0.012,0 2e-4,-7e-6 0.014,-0.0019 0.014,-0.002 10e-5,-1.5e-5 0.012,-0.0039 0.012,-0.0039 0,-2e-5 0.016,-0.0097 0.016,-0.0098 0,-2.6e-5 0.012,-0.01363 0.012,-0.01367 0,-4.1e-5 0.01,-0.0097 0.01,-0.0098 1e-4,-1.12e-4 0,-0.0135 0,-0.01367 1e-4,-3.42e-4 0,-0.0089 0,-0.01172 4e-4,-0.0057 1e-4,-0.0083 0,-0.01172 -3e-4,-0.0068 0,-0.01354 0,-0.02149 0,-0.01589 0,-0.03799 -0.01,-0.0625 -0.01,-0.04902 -0.017,-0.111651 -0.027,-0.175781 -0.021,-0.12826 -0.043,-0.262909 -0.043,-0.261719 2e-4,0.0012 -0.022,-0.133582 -0.043,-0.261718 -0.011,-0.06407 -0.022,-0.129042 -0.031,-0.177735 0,-0.02435 -0.01,-0.04494 -0.012,-0.06055 0,-0.0078 0,-0.01301 -0.01,-0.01953 -9e-4,-0.0033 0,-0.0065 0,-0.01172 0,-0.0026 -0.01,-0.01142 -0.01,-0.01172 -10e-5,-1.49e-4 -0.01,-0.0097 -0.01,-0.0098 0,-4.5e-5 -0.01,-0.0097 -0.01,-0.0098 -10e-5,-3e-5 -0.016,-0.0078 -0.016,-0.0078 0,-1.4e-5 -0.017,-0.0039 -0.017,-0.0039 -1e-4,-5e-6 -0.014,-6e-6 -0.014,0 z m -0.037,0.183594 c 0.01,0.04436 0.018,0.09528 0.027,0.15039 0.021,0.127358 0.041,0.250147 0.043,0.261719 0,0.01157 0.022,0.134237 0.043,0.261719 0.01,0.05583 0.017,0.10746 0.023,0.152343 -0.043,-0.01525 -0.092,-0.03501 -0.1445,-0.05469 -0.121,-0.04517 -0.2371,-0.08962 -0.2481,-0.09375 -0.011,-0.0041 -0.1273,-0.04592 -0.248,-0.0918 -0.053,-0.01996 -0.1006,-0.04001 -0.1426,-0.05664 0.034,-0.02918 0.074,-0.06205 0.1172,-0.09766 0.1,-0.08219 0.196,-0.160531 0.2051,-0.167969 0.01,-0.0074 0.1049,-0.08636 0.205,-0.167968 0.043,-0.03506 0.084,-0.06778 0.1192,-0.0957 z"
         id="path13-6-1-0-7-7-6-2-6"
         transform="matrix(-2.2364171,0.58483764,-0.83105227,-1.5738369,4632.0889,-782.09406)" /><path
         style="fill-rule:evenodd;stroke-linecap:round;stroke-dashoffset:2.6136;paint-order:stroke markers fill"
         d="m 1306.4297,-16.363281 c -10e-5,1.1e-5 -0.014,0.0019 -0.014,0.002 -3e-4,1e-4 -0.01,0.0046 -0.012,0.0059 -0.01,0.0025 -0.01,0.004 -0.01,0.0059 -0.01,0.0037 -0.011,0.007 -0.018,0.01172 -0.013,0.0095 -0.029,0.0218 -0.049,0.03711 -0.039,0.03062 -0.088,0.07223 -0.1386,0.113281 -0.1007,0.0821 -0.2061,0.168734 -0.2051,0.167969 9e-4,-7.66e-4 -0.1049,0.08528 -0.2051,0.167968 -0.05,0.04135 -0.101,0.08305 -0.1387,0.115235 -0.019,0.01609 -0.035,0.03022 -0.047,0.04101 -0.01,0.0054 -0.01,0.0088 -0.014,0.01367 0,0.0024 -0.01,0.0053 -0.01,0.0098 0,0.0023 -0.01,0.0095 -0.01,0.0098 -10e-5,1.55e-4 -0.01,0.01355 -0.01,0.01367 0,6e-5 0,0.01167 0,0.01172 0,5e-5 0,0.01754 0,0.01758 0,4.1e-5 0.01,0.01753 0.01,0.01758 0,4.6e-5 0.01,0.01167 0.01,0.01172 0,1.02e-4 0.01,0.0096 0.01,0.0098 3e-4,2.42e-4 0.01,0.0062 0.01,0.0078 0,0.0032 0.01,0.0043 0.01,0.0059 0.01,0.0031 0.012,0.0065 0.019,0.0098 0.015,0.0064 0.034,0.01424 0.057,0.02344 0.046,0.0184 0.1073,0.04137 0.168,0.06445 0.1214,0.04616 0.2492,0.09417 0.248,0.09375 0,-4.25e-4 0.1264,0.0483 0.2481,0.09375 0.061,0.02272 0.1213,0.04404 0.168,0.06055 0.023,0.0083 0.043,0.01667 0.059,0.02148 0.01,0.0024 0.015,0.0042 0.021,0.0059 0,8.13e-4 0.01,0.0012 0.012,0.002 0,3.7e-4 0.011,1.3e-5 0.012,0 2e-4,-7e-6 0.014,-0.0019 0.014,-0.002 10e-5,-1.5e-5 0.012,-0.0039 0.012,-0.0039 0,-2e-5 0.016,-0.0097 0.016,-0.0098 0,-2.6e-5 0.012,-0.01363 0.012,-0.01367 0,-4.1e-5 0.01,-0.0097 0.01,-0.0098 1e-4,-1.12e-4 0,-0.0135 0,-0.01367 1e-4,-3.42e-4 0,-0.0089 0,-0.01172 4e-4,-0.0057 1e-4,-0.0083 0,-0.01172 -3e-4,-0.0068 0,-0.01354 0,-0.02149 0,-0.01589 0,-0.03799 -0.01,-0.0625 -0.01,-0.04902 -0.017,-0.111651 -0.027,-0.175781 -0.021,-0.12826 -0.043,-0.262909 -0.043,-0.261719 2e-4,0.0012 -0.022,-0.133582 -0.043,-0.261718 -0.011,-0.06407 -0.022,-0.129042 -0.031,-0.177735 0,-0.02435 -0.01,-0.04494 -0.012,-0.06055 0,-0.0078 0,-0.01301 -0.01,-0.01953 -9e-4,-0.0033 0,-0.0065 0,-0.01172 0,-0.0026 -0.01,-0.01142 -0.01,-0.01172 -10e-5,-1.49e-4 -0.01,-0.0097 -0.01,-0.0098 0,-4.5e-5 -0.01,-0.0097 -0.01,-0.0098 -10e-5,-3e-5 -0.016,-0.0078 -0.016,-0.0078 0,-1.4e-5 -0.017,-0.0039 -0.017,-0.0039 -1e-4,-5e-6 -0.014,-6e-6 -0.014,0 z m -0.037,0.183594 c 0.01,0.04436 0.018,0.09528 0.027,0.15039 0.021,0.127358 0.041,0.250147 0.043,0.261719 0,0.01157 0.022,0.134237 0.043,0.261719 0.01,0.05583 0.017,0.10746 0.023,0.152343 -0.043,-0.01525 -0.092,-0.03501 -0.1445,-0.05469 -0.121,-0.04517 -0.2371,-0.08962 -0.2481,-0.09375 -0.011,-0.0041 -0.1273,-0.04592 -0.248,-0.0918 -0.053,-0.01996 -0.1006,-0.04001 -0.1426,-0.05664 0.034,-0.02918 0.074,-0.06205 0.1172,-0.09766 0.1,-0.08219 0.196,-0.160531 0.2051,-0.167969 0.01,-0.0074 0.1049,-0.08636 0.205,-0.167968 0.043,-0.03506 0.084,-0.06778 0.1192,-0.0957 z"
         id="path19-0-4-6-1"
         transform="matrix(-2.2364171,-0.58483764,-0.83105227,1.5738369,4632.0889,790.56071)" /></g></g></svg>
