<?xml version="1.0" encoding="UTF-8" standalone="no"?>
<!-- Created with Inkscape (http://www.inkscape.org/) -->

<svg
   width="5.2916665mm"
   height="5.2916646mm"
   viewBox="0 0 5.2916665 5.2916646"
   version="1.1"
   id="svg1"
   inkscape:version="1.4 (e7c3feb100, 2024-10-09)"
   sodipodi:docname="seatingPlannerSkiss.svg"
   xml:space="preserve"
   xmlns:inkscape="http://www.inkscape.org/namespaces/inkscape"
   xmlns:sodipodi="http://sodipodi.sourceforge.net/DTD/sodipodi-0.dtd"
   xmlns="http://www.w3.org/2000/svg"
   xmlns:svg="http://www.w3.org/2000/svg"><sodipodi:namedview
     id="namedview1"
     pagecolor="#ffffff"
     bordercolor="#111111"
     borderopacity="1"
     inkscape:showpageshadow="0"
     inkscape:pageopacity="0"
     inkscape:pagecheckerboard="1"
     inkscape:deskcolor="#d1d1d1"
     inkscape:document-units="mm"
     inkscape:zoom="0.53425991"
     inkscape:cx="4913.3389"
     inkscape:cy="554.97332"
     inkscape:window-width="1920"
     inkscape:window-height="1080"
     inkscape:window-x="0"
     inkscape:window-y="0"
     inkscape:window-maximized="1"
     inkscape:current-layer="g12"
     showgrid="false"
     showguides="true"><inkscape:grid
       id="grid11"
       units="mm"
       originx="-1043.8369"
       originy="-31.546583"
       spacingx="0.26458333"
       spacingy="0.26458333"
       empcolor="#0099e5"
       empopacity="0.30196078"
       color="#0099e5"
       opacity="0.14901961"
       empspacing="5"
       enabled="true"
       visible="false" /><inkscape:page
       x="0"
       y="0"
       width="5.2916665"
       height="5.2916646"
       id="page1"
       margin="0"
       bleed="0" /></sodipodi:namedview><defs
     id="defs1"><linearGradient
       id="linearGradient18"
       inkscape:swatch="gradient"><stop
         style="stop-color:#00a2ff;stop-opacity:1;"
         offset="0"
         id="stop19" /><stop
         style="stop-color:#00a2ff;stop-opacity:0;"
         offset="1"
         id="stop20" /></linearGradient></defs><g
     inkscape:label="Layer 1"
     inkscape:groupmode="layer"
     id="layer1"
     transform="translate(-1043.8369,-31.546583)"><g
       id="g12"><path
         d="m 1045.9536,34.721582 h 1.0583 v -1.058333 h -1.0583 z m -0.5292,0 v -1.058333 h -1.0583 v 1.058333 z m 0.5292,-2.645833 v 1.058333 h 1.0583 v -1.058333 z m -0.5292,0 h -1.0583 v 1.058333 h 1.0583 z m 0.5292,4.233333 h 1.0583 v -1.058333 h -1.0583 z m -0.5292,0 v -1.058333 h -1.0583 v 1.058333 z m 2.1167,-1.5875 h 1.0583 v -1.058333 h -1.0583 z m 0,-2.645833 v 1.058333 h 1.0583 v -1.058333 z m 0,4.233333 h 1.0583 v -1.058333 h -1.0583 z m -3.175,-4.7625 h 4.2333 c 0.2923,0 0.5292,0.236916 0.5292,0.529167 v 4.233333 c 0,0.292251 -0.2369,0.529167 -0.5292,0.529167 h -4.2333 c -0.2923,0 -0.5292,-0.236916 -0.5292,-0.529167 v -4.233333 c 0,-0.292251 0.2369,-0.529167 0.5292,-0.529167 z"
         fill-rule="evenodd"
         id="path1-34"
         style="stroke-width:0.264583" /></g></g></svg>
